<mxfile host="app.diagrams.net" modified="2022-08-14T11:07:28.575Z" agent="5.0 (Macintosh; Intel Mac OS X 10_15_7) AppleWebKit/537.36 (KHTML, like Gecko) Chrome/104.0.0.0 Safari/537.36" etag="iwfWCPuycti5zdH-Qi7O" version="20.2.3" type="github">
  <diagram id="lPwKQC7JdLDXjrIX11uS" name="第 1 页">
    <mxGraphModel dx="946" dy="533" grid="1" gridSize="10" guides="1" tooltips="1" connect="1" arrows="1" fold="1" page="1" pageScale="1" pageWidth="1200" pageHeight="1920" math="0" shadow="0">
      <root>
        <mxCell id="0" />
        <mxCell id="1" parent="0" />
        <mxCell id="Z7KWY8fdDdyQAsN48e2l-17" value="Pages" style="rounded=0;whiteSpace=wrap;html=1;dashed=1;" vertex="1" parent="1">
          <mxGeometry x="80" width="590" height="170" as="geometry" />
        </mxCell>
        <mxCell id="Z7KWY8fdDdyQAsN48e2l-10" value="" style="edgeStyle=orthogonalEdgeStyle;rounded=0;orthogonalLoop=1;jettySize=auto;html=1;" edge="1" parent="1" source="Z7KWY8fdDdyQAsN48e2l-3" target="Z7KWY8fdDdyQAsN48e2l-9">
          <mxGeometry relative="1" as="geometry" />
        </mxCell>
        <mxCell id="Z7KWY8fdDdyQAsN48e2l-3" value="ProCode Components" style="rounded=0;whiteSpace=wrap;html=1;dashed=1;" vertex="1" parent="1">
          <mxGeometry x="95" y="480" width="560" height="200" as="geometry" />
        </mxCell>
        <mxCell id="Z7KWY8fdDdyQAsN48e2l-4" value="ESG时间轴组件" style="rounded=0;whiteSpace=wrap;html=1;dashed=1;" vertex="1" parent="1">
          <mxGeometry x="110" y="480" width="120" height="60" as="geometry" />
        </mxCell>
        <mxCell id="Z7KWY8fdDdyQAsN48e2l-5" value="ESG标签组件" style="rounded=0;whiteSpace=wrap;html=1;dashed=1;" vertex="1" parent="1">
          <mxGeometry x="250" y="480" width="120" height="60" as="geometry" />
        </mxCell>
        <mxCell id="Z7KWY8fdDdyQAsN48e2l-6" value="ESG审批结果组件" style="rounded=0;whiteSpace=wrap;html=1;dashed=1;" vertex="1" parent="1">
          <mxGeometry x="390" y="480" width="120" height="60" as="geometry" />
        </mxCell>
        <mxCell id="Z7KWY8fdDdyQAsN48e2l-7" value="ESG人员展示组件" style="rounded=0;whiteSpace=wrap;html=1;dashed=1;" vertex="1" parent="1">
          <mxGeometry x="530" y="480" width="120" height="60" as="geometry" />
        </mxCell>
        <mxCell id="Z7KWY8fdDdyQAsN48e2l-8" value="ESG超出N行显示省略号组件" style="rounded=0;whiteSpace=wrap;html=1;dashed=1;" vertex="1" parent="1">
          <mxGeometry x="110" y="590" width="120" height="60" as="geometry" />
        </mxCell>
        <mxCell id="Z7KWY8fdDdyQAsN48e2l-19" value="" style="edgeStyle=orthogonalEdgeStyle;rounded=0;orthogonalLoop=1;jettySize=auto;html=1;" edge="1" parent="1" source="Z7KWY8fdDdyQAsN48e2l-9" target="Z7KWY8fdDdyQAsN48e2l-17">
          <mxGeometry relative="1" as="geometry" />
        </mxCell>
        <mxCell id="Z7KWY8fdDdyQAsN48e2l-9" value="LowCode Components" style="rounded=0;whiteSpace=wrap;html=1;dashed=1;" vertex="1" parent="1">
          <mxGeometry x="95" y="240" width="560" height="150" as="geometry" />
        </mxCell>
        <mxCell id="Z7KWY8fdDdyQAsN48e2l-11" value="ESG审批时间轴组件" style="rounded=0;whiteSpace=wrap;html=1;dashed=1;" vertex="1" parent="1">
          <mxGeometry x="120" y="250" width="120" height="60" as="geometry" />
        </mxCell>
        <mxCell id="Z7KWY8fdDdyQAsN48e2l-12" value="vc-deep" style="rounded=0;whiteSpace=wrap;html=1;dashed=1;" vertex="1" parent="1">
          <mxGeometry x="250" y="590" width="120" height="60" as="geometry" />
        </mxCell>
        <mxCell id="Z7KWY8fdDdyQAsN48e2l-13" value="ESG指标更新历史时间轴组件" style="rounded=0;whiteSpace=wrap;html=1;dashed=1;" vertex="1" parent="1">
          <mxGeometry x="520" y="250" width="120" height="60" as="geometry" />
        </mxCell>
        <mxCell id="Z7KWY8fdDdyQAsN48e2l-14" value="页面1" style="rounded=0;whiteSpace=wrap;html=1;" vertex="1" parent="1">
          <mxGeometry x="90" y="10" width="120" height="60" as="geometry" />
        </mxCell>
        <mxCell id="Z7KWY8fdDdyQAsN48e2l-15" value="页面2" style="rounded=0;whiteSpace=wrap;html=1;" vertex="1" parent="1">
          <mxGeometry x="250" y="10" width="120" height="60" as="geometry" />
        </mxCell>
        <mxCell id="Z7KWY8fdDdyQAsN48e2l-16" value="页面N" style="rounded=0;whiteSpace=wrap;html=1;dashed=1;" vertex="1" parent="1">
          <mxGeometry x="520" y="10" width="120" height="60" as="geometry" />
        </mxCell>
        <mxCell id="Z7KWY8fdDdyQAsN48e2l-18" value="..." style="text;html=1;strokeColor=none;fillColor=none;align=center;verticalAlign=middle;whiteSpace=wrap;rounded=0;" vertex="1" parent="1">
          <mxGeometry x="420" y="25" width="60" height="30" as="geometry" />
        </mxCell>
      </root>
    </mxGraphModel>
  </diagram>
</mxfile>
